<svg width="124" height="124" viewBox="0 0 124 124" fill="none" xmlns="http://www.w3.org/2000/svg">
<path d="M89.3696 88.6976C79.9607 88.6976 72.3337 81.4194 72.3337 72.4424C72.3337 63.464 79.9607 56.1858 89.3696 56.1858C98.7776 56.1858 106.405 63.464 106.405 72.4424C106.405 81.4194 98.7776 88.6976 89.3696 88.6976ZM94.4689 41.1459V26.6847C98.4249 24.9018 101.195 21.0834 101.195 16.6518V16.318C101.195 10.202 95.9518 5.198 89.5426 5.198H89.194C82.7848 5.198 77.5414 10.202 77.5414 16.318V16.6518C77.5414 21.0834 80.3117 24.9034 84.2677 26.6862V41.1459C78.3784 42.0147 72.9973 44.3327 68.5595 47.744L26.9511 16.8578C27.2256 15.8516 27.4185 14.8159 27.4202 13.7271C27.4267 6.80154 21.552 1.17832 14.2912 1.16895C7.03359 1.16116 1.13929 6.76879 1.13111 13.696C1.12295 20.6232 6.99766 26.2464 14.2585 26.2542C16.6237 26.2573 18.8141 25.6162 20.733 24.5742L61.6615 54.9582C58.1814 59.9715 56.1415 65.9769 56.1415 72.4424C56.1415 79.2105 58.3825 85.472 62.1682 90.6206L49.7225 102.499C48.7384 102.216 47.7185 102.02 46.6363 102.02C40.6717 102.02 35.8351 106.634 35.8351 112.325C35.8351 118.019 40.6717 122.633 46.6363 122.633C52.6026 122.633 57.4377 118.019 57.4377 112.325C57.4377 111.297 57.2318 110.321 56.9359 109.383L69.2476 97.6333C74.8363 101.703 81.7962 104.149 89.3696 104.149C107.721 104.149 122.595 89.9531 122.595 72.4424C122.595 56.5898 110.391 43.4935 94.4689 41.1459Z" fill="#FF7A59"/>
<path d="M14.2578 26.7542C16.5995 26.7573 18.7724 26.1525 20.6882 25.1637L60.9775 55.0731C57.6091 60.0838 55.6415 66.0407 55.6415 72.4424C55.6415 79.1679 57.8185 85.3996 61.507 90.5604L49.5827 101.941C48.6527 101.691 47.6754 101.52 46.6363 101.52C40.418 101.52 35.3351 106.335 35.3351 112.325C35.3351 118.317 40.4179 123.133 46.6363 123.133C52.8564 123.133 57.9377 118.317 57.9377 112.325C57.9377 111.342 57.7609 110.413 57.5037 109.532L69.2926 98.2815C74.9053 102.265 81.8396 104.649 89.3696 104.649C107.975 104.649 123.095 90.251 123.095 72.4424C123.095 56.4624 110.906 43.2667 94.9689 40.7169V27.0032C98.9274 25.0941 101.695 21.1895 101.695 16.6518V16.318C101.695 9.90405 96.2057 4.698 89.5426 4.698H89.194C82.531 4.698 77.0414 9.90405 77.0414 16.318V16.6518C77.0414 21.1894 79.8091 25.0955 83.7677 27.0047V40.7169C78.0934 41.6243 72.8946 43.8618 68.556 47.1188L27.5206 16.6579C27.7561 15.7261 27.9186 14.7531 27.9202 13.7279V13.7276C27.927 6.5043 21.8065 0.678644 14.2919 0.668954L14.2917 0.668954C6.78052 0.66089 0.639645 6.4701 0.631112 13.6954C0.622598 20.9203 6.74301 26.746 14.2578 26.7542ZM14.2578 26.7542L14.2585 26.2542M14.2578 26.7542C14.2579 26.7542 14.2579 26.7542 14.258 26.7542L14.2585 26.2542M14.2585 26.2542C16.6237 26.2573 18.8141 25.6162 20.733 24.5742L14.2912 1.16895C7.03359 1.16116 1.13929 6.76879 1.13111 13.696C1.12295 20.6232 6.99766 26.2464 14.2585 26.2542ZM89.3696 88.1976C80.2145 88.1976 72.8337 81.1214 72.8337 72.4424C72.8337 63.7619 80.2145 56.6858 89.3696 56.6858C98.5238 56.6858 105.905 63.7619 105.905 72.4424C105.905 81.1214 98.5238 88.1976 89.3696 88.1976Z" stroke="white" stroke-opacity="0.2"/>
</svg>
