<svg width="500" height="150" viewBox="0 0 500 150" fill="none" xmlns="http://www.w3.org/2000/svg">
<path d="M151.3 30.7002C144.4 31.7002 138.7 36.4002 136.5 42.9002C135.2 46.8002 135.6 52.5002 137.5 57.3002C139.2 61.6002 138.8 66.4002 136.4 71.1002C135 73.7002 132.9 76.0002 130.8 78.1002C129.7 79.2002 128.5 80.3002 127.2 81.2002C125.9 82.1002 124.5 82.9002 123.3 83.7002C120.9 85.4002 118.5 87.9002 117.3 90.6002C114 97.7002 115 105 120.2 110.5C123.2 113.7 127.2 115.8 131.6 116.3C135.7 116.7 139.9 115.6 143.3 113.2C146.9 110.7 149.7 106.8 150.6 102.5C151.2 99.7002 151.1 96.8002 150.6 94.0002C150.1 91.6002 149 89.3002 148.6 86.8002C148.4 85.8002 148.4 84.7002 148.4 83.7002C148.4 79.2002 149.2 75.2002 150.4 73.1002C150.9 72.2002 152.4 70.4002 153.6 69.2002C155.4 67.4002 156.6 66.6002 159.8 65.0002C166.1 61.9002 169.4 58.2002 170.9 52.3002C173.1 43.6002 168 34.4002 159.2 31.4002C157.2 30.7002 153.4 30.3002 151.5 30.5002L151.3 30.7002Z" fill="#070621"/>
<path d="M100.2 40.3001C93.3001 42.2001 88.1001 48.1001 87.1001 55.1001C86.7001 58.2001 87.0001 60.8001 88.4001 64.8001C89.2001 67.1001 89.3001 68.0001 89.2001 70.4001C88.9001 75.8001 86.5001 79.3001 81.0001 82.3001C75.9001 85.0001 73.2001 88.0001 71.5001 92.8001C70.5001 95.7001 70.4001 100.6 71.2001 103.6C73.8001 112.6 83.6001 118.2 92.6001 115.9C100.8 113.8 106.1 106.9 106.1 98.5001C106.1 90.1001 105.9 94.7001 105 91.9001C102.3 83.6001 104.7 77.6001 112.5 73.4001C117.7 70.6001 120.8 66.7001 122.1 61.4001C124.2 52.3001 118.3 42.7001 109.2 40.3001C106.7 39.7001 102.7 39.7001 100.3 40.3001H100.2Z" fill="#070621"/>
<path d="M47.5999 61.8004C44.0999 62.3004 39.5999 64.8004 37.1999 67.6004C34.4999 70.6004 32.5999 75.6004 32.5999 79.6004C32.5999 81.6004 31.3999 84.5004 29.5999 87.1004C27.2999 90.3004 26.1999 92.9004 25.6999 96.2004C24.8999 101.6 26.6999 106.9 30.7999 111C37.8999 118.1 48.4999 118.2 55.6999 111.3C58.9999 108.1 61.1999 103.4 61.1999 99.4004C61.1999 95.4004 62.1999 93.8004 64.1999 90.8004C66.5999 87.2004 67.4999 85.1004 67.9999 81.9004C69.7999 70.4004 59.0999 60.0004 47.4999 61.9004L47.5999 61.8004Z" fill="#070621"/>
<path d="M196.9 44.4004H206.7L218.3 74.7004H218.6L229.5 44.4004H239.3V101.8H232.4L232.8 53.8004L232.5 53.6004L221.2 83.6004H215.3L203.7 53.6004H203.4L203.7 101.9H196.9V44.5004V44.4004Z" fill="#070621"/>
<path d="M248.6 81.2002C248.6 68.8002 254.9 60.2002 268.5 60.2002C282.1 60.2002 287.3 68.8002 287.3 80.7002C287.3 92.6002 281.3 102.6 267.7 102.6C254.1 102.6 248.6 93.7002 248.6 81.1002V81.2002ZM279.8 81.2002C279.8 70.8002 276.1 66.0002 268.3 66.0002C260.5 66.0002 256 70.8002 256 81.3002C256 91.8002 260 97.1002 267.9 97.1002C275.8 97.1002 279.8 92.1002 279.8 81.3002V81.2002Z" fill="#070621"/>
<path d="M296.1 96.4003H307.7V66.4003H296.1V61.0003H314.3V67.7003L314.9 67.9003C318.7 63.9003 323.1 60.3003 329 60.3003C334.9 60.3003 338.1 61.4003 338.1 70.0003V74.8003L331.5 75.4003V71.6003C331.5 67.0003 329.3 66.5003 327.1 66.5003C322.9 66.5003 319.5 69.3003 315 73.4003V96.5003H330.1V101.8H296.2V96.5003L296.1 96.4003Z" fill="#070621"/>
<path d="M349.2 118.5V61.0003H355.8V66.0003L356.4 66.2003C360.7 62.2003 364.5 60.3003 370 60.3003C379.1 60.3003 386 65.1003 386 80.3003C386 95.5003 379 102.8 368.9 102.8C358.8 102.8 359.8 100.5 356.9 98.4003L356.3 98.6003V118.6H349.2V118.5ZM378.5 80.1003C378.5 69.7003 374.9 66.0003 368.1 66.0003C361.3 66.0003 358.9 68.9003 356.4 71.1003V92.6003C358.5 94.2003 362.7 96.8003 367.8 96.8003C376.4 96.8003 378.5 89.8003 378.5 80.1003Z" fill="#070621"/>
<path d="M398.5 101.7V41.9004H405.7V66.3004L406.2 66.5004C409.7 62.9004 413.3 60.2004 419.8 60.2004C426.3 60.2004 432.2 65.2004 432.2 74.5004V101.7H425V76.0004C425 69.0004 423.2 66.3004 417.7 66.3004C412.2 66.3004 408 69.8004 405.7 71.8004V101.6H398.5V101.7Z" fill="#070621"/>
<path d="M441.1 110.2H474.5V116.1H441.1V110.2Z" fill="#070621"/>
</svg>
