<svg width="128" height="128" viewBox="0 0 128 128" fill="none" xmlns="http://www.w3.org/2000/svg">
<path d="M105.792 26.3106C100.368 27.1001 95.8875 30.8105 94.1582 35.942C93.1363 39.0209 93.4507 43.5209 94.9443 47.3103C96.2806 50.705 95.9662 54.4944 94.0796 58.2049C92.9791 60.2575 91.3283 62.0732 89.6776 63.7311C88.8129 64.5995 87.8696 65.4679 86.8477 66.1784C85.8259 66.8889 84.7254 67.5205 83.7821 68.1521C81.8955 69.4942 80.0089 71.4678 79.0657 73.5994C76.4716 79.2045 77.2577 84.9676 81.3453 89.3096C83.7035 91.8359 86.8477 93.4938 90.3065 93.8885C93.5293 94.2043 96.8308 93.3359 99.5035 91.4412C102.333 89.4675 104.534 86.3886 105.242 82.994C105.713 80.7835 105.635 78.494 105.242 76.2835C104.849 74.3888 103.984 72.5731 103.67 70.5994C103.512 69.8099 103.512 68.9415 103.512 68.1521C103.512 64.5995 104.141 61.4416 105.085 59.7838C105.478 59.0733 106.657 57.6522 107.6 56.7049C109.015 55.2838 109.958 54.6523 112.474 53.3891C117.426 50.9418 120.02 48.0208 121.199 43.363C122.928 36.4947 118.919 29.2316 112.002 26.8632C110.43 26.3106 107.443 25.9948 105.949 26.1527L105.792 26.3106Z" fill="#090622"/>
<path d="M65.677 33.891C60.2612 35.3902 56.1797 40.0456 55.3947 45.5691C55.0808 48.0151 55.3163 50.0667 56.4151 53.2229C57.0431 55.0378 57.1215 55.7479 57.0431 57.6417C56.8076 61.9026 54.9238 64.6643 50.6068 67.0315C46.6038 69.162 44.4845 71.5291 43.1502 75.3166C42.3653 77.6049 42.2868 81.4713 42.9147 83.8385C44.9555 90.94 52.6476 95.3587 59.7117 93.5439C66.148 91.8869 70.308 86.4424 70.308 79.8143C70.308 77.1753 70.151 76.8158 69.4446 74.6065C67.3253 68.0573 69.2091 63.3229 75.3314 60.0089C79.4129 57.7995 81.8461 54.7222 82.8665 50.5401C84.5148 43.3597 79.8839 35.7847 72.7412 33.891C70.7789 33.4175 67.6393 33.4175 65.7555 33.891H65.677Z" fill="#090622"/>
<path d="M24.2642 50.7873C21.5143 51.1825 17.9788 53.1589 16.0932 55.3724C13.9719 57.7441 12.4791 61.6968 12.4791 64.859C12.4791 66.4401 11.5363 68.7327 10.1221 70.7881C8.31509 73.3179 7.45086 75.3733 7.05803 77.9821C6.42949 82.251 7.84369 86.4409 11.0649 89.6822C16.6432 95.2951 24.9713 95.3741 30.6281 89.9193C33.2208 87.3896 34.9492 83.674 34.9492 80.5118C34.9492 77.3497 35.7349 76.0848 37.3062 73.7131C39.1919 70.8672 39.899 69.207 40.2918 66.6773C41.706 57.586 33.3779 49.2852 24.2642 50.7873Z" fill="#090622"/>
</svg>
