<svg width="128" height="128" viewBox="0 0 128 128" fill="none" xmlns="http://www.w3.org/2000/svg">
<path d="M105.792 26.3104C100.368 27.0999 95.8875 30.8103 94.1582 35.9418C93.1363 39.0207 93.4507 43.5207 94.9443 47.3101C96.2806 50.7048 95.9662 54.4942 94.0796 58.2047C92.9791 60.2573 91.3283 62.073 89.6776 63.7309C88.8129 64.5993 87.8696 65.4677 86.8477 66.1782C85.8259 66.8887 84.7254 67.5203 83.7821 68.1519C81.8955 69.494 80.0089 71.4676 79.0657 73.5992C76.4716 79.2043 77.2577 84.9674 81.3453 89.3094C83.7035 91.8357 86.8477 93.4936 90.3065 93.8883C93.5293 94.2041 96.8308 93.3357 99.5035 91.441C102.333 89.4673 104.534 86.3884 105.242 82.9938C105.713 80.7833 105.635 78.4938 105.242 76.2833C104.849 74.3886 103.984 72.5729 103.67 70.5992C103.512 69.8097 103.512 68.9413 103.512 68.1519C103.512 64.5993 104.141 61.4414 105.085 59.7836C105.478 59.0731 106.657 57.652 107.6 56.7047C109.015 55.2836 109.958 54.6521 112.474 53.3889C117.426 50.9416 120.02 48.0206 121.199 43.3628C122.928 36.4945 118.919 29.2314 112.002 26.863C110.43 26.3104 107.443 25.9946 105.949 26.1525L105.792 26.3104Z" fill="#FCFCFB"/>
<path d="M65.677 33.8908C60.2612 35.39 56.1797 40.0454 55.3947 45.5689C55.0808 48.0149 55.3163 50.0665 56.4151 53.2227C57.0431 55.0376 57.1215 55.7477 57.0431 57.6415C56.8076 61.9024 54.9238 64.6641 50.6068 67.0313C46.6038 69.1618 44.4845 71.5289 43.1502 75.3164C42.3653 77.6047 42.2868 81.4711 42.9147 83.8383C44.9555 90.9398 52.6476 95.3585 59.7117 93.5437C66.148 91.8867 70.308 86.4422 70.308 79.8141C70.308 77.1751 70.151 76.8156 69.4446 74.6063C67.3253 68.0571 69.2091 63.3227 75.3314 60.0087C79.4129 57.7993 81.8461 54.722 82.8665 50.5399C84.5148 43.3595 79.8839 35.7845 72.7412 33.8908C70.7789 33.4173 67.6393 33.4173 65.7555 33.8908H65.677Z" fill="#FCFCFB"/>
<path d="M24.2642 50.7873C21.5143 51.1825 17.9788 53.1589 16.0932 55.3724C13.9719 57.7441 12.4791 61.6968 12.4791 64.859C12.4791 66.4401 11.5363 68.7327 10.1221 70.7881C8.31509 73.3179 7.45086 75.3733 7.05803 77.9821C6.42949 82.251 7.84369 86.4409 11.0649 89.6822C16.6432 95.2951 24.9713 95.3741 30.6281 89.9193C33.2208 87.3896 34.9492 83.674 34.9492 80.5118C34.9492 77.3497 35.7349 76.0848 37.3062 73.7131C39.1919 70.8672 39.899 69.207 40.2918 66.6773C41.706 57.586 33.3779 49.2852 24.2642 50.7873Z" fill="#FCFCFB"/>
</svg>
